# xmcd
#
# Track frame offsets: 
#        150
#        14807
#        29247
#        49980
#        68647
#        82202
#        103190
#        115822
#        127327
#        152685
#        169367
#        185895
#
# Disc length: 2679 seconds
#
# Revision: 0
# Processed by: cddbd v1.5.2PL0 Copyright (c) Steve Scherf et al.
# Submitted via: ExactAudioCopy v0.99pb4
#
DISCID=bd0a750c
DTITLE=Dimlights - Walking The Duck
DYEAR=1900
DGENRE=Country
TTITLE0=Molly Green
TTITLE1=Ride Lassie Ride
TTITLE2=Callin'You
TTITLE3=Tundra Sky
TTITLE4=Uniform
TTITLE5=Bound To Ride
TTITLE6=Walking The Duck
TTITLE7=Battery Blues
TTITLE8=Every Single Day
TTITLE9=Wayward Bound
TTITLE10=Between Steel And Ground
TTITLE11=Borneon Lights
EXTD=
EXTT0=
EXTT1=
EXTT2=
EXTT3=
EXTT4=
EXTT5=
EXTT6=
EXTT7=
EXTT8=
EXTT9=
EXTT10=
EXTT11=
PLAYORDER=
